{"title":"Scott and Bailey S05E01 x264 RB58.mp4","uid":14381893,"size":523986931,"categoryP":"video","categoryS":"tv_shows","magnet":"?xt=urn:btih:dfea5036ffa1215641eae5b22c26de712c6fda60&amp;dn=Scott+and+Bailey+S05E01+x264+RB58.mp4&amp;tr=udp%3A%2F%2Ftracker.leechers-paradise.org%3A6969&amp;tr=udp%3A%2F%2Fzer0day.ch%3A1337&amp;tr=udp%3A%2F%2Fopen.demonii.com%3A1337&amp;tr=udp%3A%2F%2Ftracker.coppersurfer.tk%3A6969&amp;tr=udp%3A%2F%2Fexodus.desync.com%3A6969","seeders":1,"leechers":0,"uploader":"RedBaron58","files":1,"time":1461239910,"description":"Scott and Bailey S05E01 x264 mp4\r\n \nhttp://www.imdb.com/title/tt1843678/\r\n\r\nTrailer:\r\n\r\nPlease be patient My intial upload speed is limited.\r\nThank you for your kind comments and feedback on my other torrents, your feedback is welcome.\r\n\r\n\r\nAbout the Episode:\r\nRachel steps up to acting DI on a case that becomes bigger and more sinister than it first seemed. \r\nMeanwhile, Janet is glad of Rachel's return, having not known how much she was going \r\nto need her friend.\r\nStarring Lesley Sharp and Suranne Jones\r\n\r\nI hope you enjoy.\r\n\r\n\r\nTechnical:\r\n\r\nGeneral\r\nComplete name : G:Scott and Bailey S05E01 x264 RB58.mp4\r\nFormat : MPEG-4\r\nFormat profile : Base Media\r\nCodec ID : isom\r\nFile size : 500 MiB\r\nDuration : 45mn 56s\r\nOverall bit rate : 1 521 Kbps\r\nWriting application : Lavf54.63.104\r\n\r\nVideo\r\nID : 1\r\nFormat : AVC\r\nFormat/Info : Advanced Video Codec\r\nFormat profile :   \r\nFormat settings, CABAC : Yes\r\nFormat settings, ReFrames : 4 frames\r\nCodec ID : avc1\r\nCodec ID/Info : Advanced Video Coding\r\nDuration : 45mn 56s\r\nBit rate : 1 400 Kbps\r\nWidth : 832 pixels\r\nHeight : 468 pixels\r\nDisplay aspect ratio : 16:9\r\nFrame rate mode : Constant\r\nFrame rate : 25.000 fps\r\nColor space : YUV\r\nChroma subsampling : 4:2:0\r\nBit depth : 8 bits\r\nScan type : Progressive\r\nBits/(Pixel*Frame) : 0.144\r\nStream size : 460 MiB (92%)\r\nWriting library : x264 core 123 r2189 35cf912\r\nEncoding settings : cabac=1 / ref=3 / deblock=1:0:0\r\n\r\nAudio\r\nID : 2\r\nFormat : AAC\r\nFormat/Info : Advanced Audio Codec\r\nFormat profile : LC\r\nCodec ID : 40\r\nDuration : 45mn 56s\r\nBit rate mode : Constant\r\nBit rate : 112 Kbps\r\nChannel(s) : 2 channels\r\nChannel positions : Front: L R\r\nSampling rate : 48.0 KHz\r\nCompression mode : Lossy\r\nStream size : 36.8 MiB (7%)","torrent":{"xt":"urn:btih:dfea5036ffa1215641eae5b22c26de712c6fda60","amp;dn":"Scott+and+Bailey+S05E01+x264+RB58.mp4","amp;tr":["udp%3A%2F%2Ftracker.leechers-paradise.org%3A6969","udp%3A%2F%2Fzer0day.ch%3A1337","udp%3A%2F%2Fopen.demonii.com%3A1337","udp%3A%2F%2Ftracker.coppersurfer.tk%3A6969","udp%3A%2F%2Fexodus.desync.com%3A6969"],"infoHash":"dfea5036ffa1215641eae5b22c26de712c6fda60","infoHashBuffer":{"type":"Buffer","data":[223,234,80,54,255,161,33,86,65,234,229,178,44,38,222,113,44,111,218,96]},"announce":[],"urlList":[]}}